<svg width="150" height="150" viewBox="0 0 150 150" fill="none" xmlns="http://www.w3.org/2000/svg">
<g clip-path="url(#clip0_606_374)">
<g filter="url(#filter0_f_606_374)">
<path d="M56.2567 140.366C44.8986 137.109 34.5852 130.949 26.3329 122.492C18.0806 114.036 12.1742 103.575 9.19578 92.1407C6.21738 80.7065 6.2698 68.6935 9.34786 57.2857C12.4259 45.8779 18.4234 35.469 26.7492 27.0849L75 75L56.2567 140.366Z" stroke="#D57D10" stroke-width="2"/>
</g>
<path d="M56.2567 140.366C44.8986 137.109 34.5852 130.949 26.3329 122.492C18.0806 114.036 12.1742 103.575 9.19578 92.1407C6.21738 80.7065 6.2698 68.6935 9.34786 57.2857C12.4259 45.8779 18.4234 35.469 26.7492 27.0849L75 75L56.2567 140.366Z" stroke="#D57D10" stroke-width="2"/>
<circle cx="75.5" cy="74.5" r="67.5" fill="#040F20"/>
</g>
<defs>
<filter id="filter0_f_606_374" x="-4" y="15.6709" width="90.1243" height="135.932" filterUnits="userSpaceOnUse" color-interpolation-filters="sRGB">
<feFlood flood-opacity="0" result="BackgroundImageFix"/>
<feBlend mode="normal" in="SourceGraphic" in2="BackgroundImageFix" result="shape"/>
<feGaussianBlur stdDeviation="5" result="effect1_foregroundBlur_606_374"/>
</filter>
<clipPath id="clip0_606_374">
<rect width="150" height="150" fill="white"/>
</clipPath>
</defs>
</svg>
