<svg width="128" height="134" viewBox="0 0 128 134" fill="none" xmlns="http://www.w3.org/2000/svg">
<g filter="url(#filter0_f_604_360)">
<path d="M83.9345 11.5279C95.8014 17.0615 105.49 26.3855 111.476 38.0312C117.461 49.677 119.402 62.9829 116.993 75.8532C114.585 88.7234 107.963 100.427 98.1716 109.12C88.3802 117.813 75.9751 123.003 62.9101 123.87L59 65L83.9345 11.5279Z" stroke="#D57D10" stroke-width="8"/>
</g>
<path d="M83.9345 11.5279C95.8014 17.0615 105.49 26.3855 111.476 38.0312C117.461 49.677 119.402 62.9829 116.993 75.8532C114.585 88.7234 107.963 100.427 98.1716 109.12C88.3802 117.813 75.9751 123.003 62.9101 123.87L59 65L83.9345 11.5279Z" stroke="#D57D10" stroke-width="8"/>
<circle cx="59" cy="65" r="57" fill="#040F20"/>
<defs>
<filter id="filter0_f_604_360" x="49.5407" y="0.811914" width="77.8593" height="132.715" filterUnits="userSpaceOnUse" color-interpolation-filters="sRGB">
<feFlood flood-opacity="0" result="BackgroundImageFix"/>
<feBlend mode="normal" in="SourceGraphic" in2="BackgroundImageFix" result="shape"/>
<feGaussianBlur stdDeviation="2.7" result="effect1_foregroundBlur_604_360"/>
</filter>
</defs>
</svg>
